<?xml version="1.0" encoding="utf-8"?>
<!-- Generator: Adobe Illustrator 24.2.1, SVG Export Plug-In . SVG Version: 6.00 Build 0)  -->
<svg version="1.1" id="Layer_1" xmlns="http://www.w3.org/2000/svg" xmlns:xlink="http://www.w3.org/1999/xlink" x="0px" y="0px"
	 viewBox="0 0 1366 768" style="enable-background:new 0 0 1366 768;" xml:space="preserve">
<style type="text/css">
	.st0{fill:url(#Ellipse_325_1_);}
	.st1{fill:#FFFFFF;}
	.st2{font-family:'AcierBATText-Solid';}
	.st3{font-size:30.6518px;}
</style>
<linearGradient id="Ellipse_325_1_" gradientUnits="userSpaceOnUse" x1="1.3109" y1="769.2864" x2="1.1867" y2="769.0849" gradientTransform="matrix(2344.2258 -1246.447 -1172.74 -2205.603 899780.8125 1698680.625)">
	<stop  offset="0" style="stop-color:#FFFFFF"/>
	<stop  offset="0.594" style="stop-color:#B5E5F7"/>
	<stop  offset="1" style="stop-color:#B5E5F7"/>
</linearGradient>
<path id="Ellipse_325" class="st0" d="M233.7-563.2C729.8-827,1333.1-662.4,1581.2-195.7s47.2,1058.9-448.9,1322.6
	S33,1226.1-215.1,759.4S-262.4-299.5,233.7-563.2z"/>
<text transform="matrix(1 0 0 1 -151.2695 137.0273)" class="st1 st2 st3">1011100100101001000101110110111001011100100101001000101110110111001001010010001011101101110010010100100010111011</text>
<text transform="matrix(1 0 0 1 -151.2695 163.8477)" class="st1 st2 st3">0111001001010010001011101101110010010100100010111011011100100101001000101110110111001001010010001011101v1011100</text>
<text transform="matrix(1 0 0 1 -151.2695 190.668)" class="st1 st2 st3">100101001000101110110111001001010010001011101101110010010100100010111011011100100101001000101110110111001001010</text>
<text transform="matrix(1 0 0 1 -151.2695 217.4883)" class="st1 st2 st3">01000101110110111001001010010001011101101110010010100100010111011011100100101001000101110110111001001010010001</text>
<text transform="matrix(1 0 0 1 -151.2695 244.3086)" class="st1 st2 st3">0111011001010010001011101101110010010100100010111011011100101110010010100100010111011011100100101001000101110110</text>
<text transform="matrix(1 0 0 1 -151.2695 271.1289)" class="st1 st2 st3">111001001010010001011101101110010010100100010111011011100100101001000101110110111001001010010001011101101110010</text>
<text transform="matrix(1 0 0 1 -151.2695 297.9492)" class="st1 st2 st3">01010010001011101v10111001001010010001011101101110010010100100010111011011100100101001000101110110111001001010</text>
<text transform="matrix(1 0 0 1 -151.2695 324.7695)" class="st1 st2 st3">01000101110110111001001010010001011101101110010010100100010111011011100100101001000101110110111001001010010001</text>
<text transform="matrix(1 0 0 1 -151.2695 351.5898)" class="st1 st2 st3">0111011011100100101001000101110110010100100010111011011100100101001000101110110111001011100100101001000101110110</text>
<text transform="matrix(1 0 0 1 -151.2695 378.4102)" class="st1 st2 st3">111001001010010001011101101110010010100100010111011011100100101001000101110110111001001010010001011101101110010</text>
<text transform="matrix(1 0 0 1 -151.2695 405.2305)" class="st1 st2 st3">01010010001011101101110010010100100010111010101110010010100100010111011011100100101001000101110110111001001010</text>
<text transform="matrix(1 0 0 1 -151.2695 432.0508)" class="st1 st2 st3">01000101110110111001001010010001011101101110010010100100010111011011100100101001000101110110111001001010010001</text>
<text transform="matrix(1 0 0 1 -151.2695 458.8711)" class="st1 st2 st3">0111011011100100101001000101110110111001001010010001011101100101001000101110110111001001010010001011101101110010</text>
<text transform="matrix(1 0 0 1 -151.2695 485.6914)" class="st1 st2 st3">111001001010010001011101101110010010100100010111011011100100101001000101110110111001001010010001011101101110010</text>
<text transform="matrix(1 0 0 1 -151.2695 512.5117)" class="st1 st2 st3">0101001000101110110111001001010010001011101101110010010100100010111011011100100101001000101110110111001001010</text>
<text transform="matrix(1 0 0 1 -151.2695 539.332)" class="st1 st2 st3">01000101110110111001001010010001011101101110010010100100010111011011100100101001000101110110111001001010010001</text>
<text transform="matrix(1 0 0 1 -151.2695 566.1523)" class="st1 st2 st3">0111011011100100101001000101110110111001001010010001011101101110010010100100010111011001010010001011101101110010</text>
<text transform="matrix(1 0 0 1 -151.2695 592.9727)" class="st1 st2 st3">010100100010111011011100101110010010100100010111011011100100101001000101110110111001001010010001011101101110010</text>
<text transform="matrix(1 0 0 1 -151.2695 619.793)" class="st1 st2 st3">01010010001011101101110010010100100010111011011100100101001000101110110111001001010010001011101v10111001001010</text>
<text transform="matrix(1 0 0 1 -151.2695 646.6133)" class="st1 st2 st3">01000101110110111001001010010001011101101110010010100100010111011011100100101001000101110110111001001010010001</text>
<text transform="matrix(1 0 0 1 -151.2695 673.4336)" class="st1 st2 st3">0111011011100100101001000101110110111001001010010001011101101110010010100100010111011011100100101001000101110110</text>
<text transform="matrix(1 0 0 1 -151.2695 700.2539)" class="st1 st2 st3">010100100010111011011100100101001000101110110111001011100100101001000101110110111001001010010001011101101110010</text>
<text transform="matrix(1 0 0 1 -151.2695 727.0742)" class="st1 st2 st3">010100100010111011011100100101001000101110110111001001010010001011101101110010010100100010111011011100100101001</text>
<text transform="matrix(1 0 0 1 -151.2695 753.8945)" class="st1 st2 st3">0001011101v101110010010100100010111011011100100101001000101110110111001001010010001011101101110010010100100010</text>
<text transform="matrix(1 0 0 1 -151.2695 780.7148)" class="st1 st2 st3">11101101110010010100100010111011011100100101001000101110110111001001010010001011101101110010010100100010111011011</text>
</svg>
