<?xml version="1.0" encoding="utf-8"?>
<!-- Generator: Adobe Illustrator 24.2.1, SVG Export Plug-In . SVG Version: 6.00 Build 0)  -->
<svg version="1.1" id="Layer_1" xmlns="http://www.w3.org/2000/svg" xmlns:xlink="http://www.w3.org/1999/xlink" x="0px" y="0px"
	 viewBox="0 0 1366 768" style="enable-background:new 0 0 1366 768;" xml:space="preserve">
<style type="text/css">
	.st0{fill:#EFF8FD;}
	.st1{fill:#B5E5F7;}
</style>
<path id="Rectangle_54" class="st0" d="M-22.8,665V374.9c0-18.9,15.3-34.2,34.2-34.2h382.1c18.9,0,34.2,15.3,34.2,34.2V665
	c0,18.9-15.3,34.2-34.2,34.2H11.5C-7.5,699.2-22.8,683.9-22.8,665z"/>
<path id="Rectangle_56" class="st0" d="M960.4,426.3V136.2c0-18.9,15.3-34.2,34.2-34.2h382.1c18.9,0,34.2,15.3,34.2,34.2v290.1
	c0,18.9-15.3,34.2-34.2,34.2H994.7C975.8,460.6,960.4,445.2,960.4,426.3z"/>
<path id="Rectangle_53" class="st1" d="M178.4,380.4v-90.7c0-18.9,15.3-34.2,34.2-34.2h131.6c18.9,0,34.2,15.3,34.2,34.2v90.7
	c0,18.9-15.3,34.2-34.2,34.2H212.6C193.7,414.6,178.4,399.3,178.4,380.4z"/>
<path id="Rectangle_55" class="st1" d="M888.6,467.7V354.5c0-18.9,15.3-34.2,34.2-34.2h159.8c18.9,0,34.2,15.3,34.2,34.2v113.2
	c0,18.9-15.3,34.2-34.2,34.2H922.8C903.9,501.9,888.6,486.6,888.6,467.7z"/>
<path id="Path_33" class="st1" d="M179.6,378.6l57.8,36.2l-86.8,15.6L179.6,378.6z"/>
<path id="Path_35" class="st1" d="M1115.4,460.7l-66,41.3l99.1,17.8L1115.4,460.7z"/>
</svg>
