<?xml version="1.0" encoding="utf-8"?>
<!-- Generator: Adobe Illustrator 24.2.1, SVG Export Plug-In . SVG Version: 6.00 Build 0)  -->
<svg version="1.1" id="Layer_1" xmlns="http://www.w3.org/2000/svg" xmlns:xlink="http://www.w3.org/1999/xlink" x="0px" y="0px"
	 viewBox="0 0 131 192" style="enable-background:new 0 0 131 192;" xml:space="preserve">
<style type="text/css">
	.st0{fill:#B5E5F7;}
	.st1{fill:#69C1ED;}
	.st2{fill:#7F7F7F;}
	.st3{fill:#B5E5F7;}
</style>
<g>
	<g>
		<path class="st0" d="M44.8,117.2H78c-1.4,25.7-8.3,45.2-16.6,45.2C53.1,162.4,46.2,142.9,44.8,117.2z"/>
		<path class="st0" d="M78,98H44.8c1.4-25.7,8.3-49.2,16.6-49.2C69.7,48.8,76.6,72.3,78,98z"/>
		<polygon class="st0" points="117.3,162.4 83.6,162.4 83.6,48.8 117.3,52.8 		"/>
		<polygon class="st0" points="12.3,147.4 45.9,50 12.3,52.8 		"/>
		<polygon class="st0" points="12.2,67.7 45.9,162.4 12.2,162.4 		"/>
	</g>
	<rect x="10.2" y="168" class="st1" width="109.1" height="8.3"/>
	<rect x="4.3" y="174.5" class="st1" width="120.9" height="14.1"/>
	<path class="st0" d="M114.8,34.2H14.7c0.8-1.3,1.6-2.6,2.5-3.9c1.4-2.1,3-4.1,4.6-6c1.7-2,3.5-3.9,5.3-5.6c2-1.9,4.1-3.6,6.3-5.2
		c3.2-2.3,6.6-4.3,10.1-5.9C50.1,4.6,57.3,3,64.8,3c7.6,0,14.8,1.7,21.5,4.7c3.5,1.6,6.9,3.6,10.1,5.9c2.2,1.6,4.3,3.3,6.2,5.2
		c2,1.9,3.8,3.9,5.6,6c1.5,1.8,2.9,3.7,4.3,5.7C113.3,31.7,114.1,32.9,114.8,34.2z"/>
	<path class="st0" d="M114.8,34.2H14.7c0.8-1.3,1.6-2.6,2.5-3.9c1.4-2.1,3-4.1,4.6-6c1.7-2,3.5-3.9,5.3-5.6c2-1.9,4.1-3.6,6.3-5.2
		c3.2-2.3,6.6-4.3,10.1-5.9C50.3,7,57.3,6.8,64.4,6.8c7.4,0,14.8,0.3,22,1c3.5,1.6,6.9,3.6,10.1,5.9c2.2,1.6,4.3,3.3,6.2,5.2
		c2,1.9,3.8,3.9,5.6,6c1.5,1.8,2.9,3.7,4.3,5.7C113.3,31.7,114.1,32.9,114.8,34.2z"/>
	<path class="st1" d="M112.5,30.5c0.8,1.2,1.6,2.4,2.3,3.7H14.7c0.8-1.3,1.6-2.6,2.5-3.9c1.4-2.1,3-4.1,4.6-6c1.7-2,3.5-3.9,5.3-5.6
		c2-1.9,4.1-3.6,6.3-5.2c10.1-1.3,20.4-2,31-2c10.9,0,21.6,0.7,32,2.1c2.2,1.6,4.3,3.3,6.2,5.2c2,1.9,3.8,3.9,5.6,6
		C109.7,26.6,111.2,28.6,112.5,30.5z"/>
	<path class="st1" d="M112.5,30.5c0.8,1.2,1.6,2.4,2.3,3.7H14.7c0.8-1.3,1.6-2.6,2.5-3.9c1.4-2.1,3-4.1,4.6-6c1.7-2,3.5-3.9,5.3-5.6
		c12-1.9,24.5-2.9,37.2-2.9c13.1,0,26,1,38.3,3c2,1.9,3.8,3.9,5.6,6C109.7,26.6,111.2,28.6,112.5,30.5z"/>
	<path class="st0" d="M112.5,30.5c0.8,1.2,1.6,2.4,2.3,3.7H14.7c0.8-1.3,1.6-2.6,2.5-3.9c1.4-2.1,3-4.1,4.6-6
		c13.4-2.4,27.4-3.6,41.7-3.6c15.4,0,30.4,1.4,44.7,4.1C109.7,26.6,111.2,28.6,112.5,30.5z"/>
	<path class="st0" d="M112.5,30.5c0.8,1.2,1.6,2.4,2.3,3.7H14.7c0.8-1.3,1.6-2.6,2.5-3.9c15-3,30.8-4.6,47.1-4.6
		C81,25.7,97.2,27.4,112.5,30.5z"/>
	<path class="st2" d="M97.4,34.2H31.3C42,32.7,53.1,32,64.4,32S86.7,32.7,97.4,34.2z"/>
	<path class="st1" d="M127.2,35v11.8c-2.3-0.3-4.6-0.5-6.9-0.8c-16.9-1.8-35-2.8-53.7-2.8c-20.4,0-39.9,1.2-58.2,3.3
		c-2,0.2-4.1,0.5-6.1,0.8V35.4c4-0.5,8.1-1,12.2-1.4c16.5-1.7,34-2.6,52.1-2.6c16.5,0,32.4,0.8,47.5,2.2
		C118.6,34,122.9,34.4,127.2,35z"/>
	<rect x="59.1" y="111.6" class="st3" width="2.5" height="5.6"/>
	<circle class="st3" cx="61.6" cy="111.3" r="2.5"/>
</g>
</svg>
