<svg width="307" height="170" viewBox="0 0 307 170" fill="none" xmlns="http://www.w3.org/2000/svg">
<path d="M191.853 0.0915532C210.431 -0.051696 229.011 -0.0270012 247.586 0.166748C252.336 0.258498 257.158 0.0841626 261.906 0.222413C263.573 0.271236 265.178 0.9513 266.676 1.63648C268.636 4.79122 268.886 5.60645 268.901 9.24194C268.939 18.4649 268.895 27.6982 268.89 36.9207L268.881 84.3562L268.756 107.29C268.741 111.833 268.95 116.441 268.426 120.957C267.343 130.264 257.536 128.46 250.589 128.453L231.01 128.425L96.3279 128.375L64.2048 128.362C59.0425 128.361 45.2624 128.934 41.0818 127.528C40.0963 126.598 39.0346 125.108 38.1902 124.003C37.3862 119.049 38.074 109.542 38.0808 104.094L38.1091 62.4343L38.3542 27.0681C38.3617 20.1664 38.145 13.1684 38.4372 6.29273C38.5996 2.47106 40.8713 0.424653 44.5993 0.285889C48.5201 0.139889 52.3634 0.173131 56.2741 0.171631L76.6218 0.0593266L191.853 0.0915532ZM220.589 7.33765C198.584 7.15565 176.575 7.15635 154.569 7.3396L78.9343 7.38745C70.231 7.40745 60.5452 7.04164 52.0105 7.28589L47.8376 7.54663C46.8545 8.20727 45.8732 8.71403 45.7732 9.94507C45.4887 13.4498 45.5762 17.3518 45.5739 20.863L45.5866 43.9714C45.4524 61.4295 45.4517 78.8884 45.5847 96.3464C45.6007 102.203 45.1191 114.121 45.6716 119.436C46.9956 120.293 47.7757 120.845 49.407 120.891C53.6578 121.013 57.9794 120.978 62.2292 120.971L85.3738 120.9L141.449 120.749C154.513 120.598 167.653 120.907 180.725 120.922L255.443 120.718C259.436 120.623 261.078 120.562 261.118 116.263C261.19 108.389 261.158 100.518 261.183 92.6433C261.311 77.5841 261.305 62.5238 261.168 47.4646C261.105 40.1181 261.096 32.7713 261.138 25.4246C261.158 20.7642 261.653 12.8765 260.379 8.65112C259.869 6.96 246.503 7.38126 244.674 7.37183L220.589 7.33765Z" fill="#B0D5EC"/>
<path d="M150.947 38.5274C162.522 37.8152 171.76 45.7708 173.109 57.3878C173.934 64.4894 173.218 73.2162 168.502 78.9131C164.142 84.1805 160.134 85.755 153.497 86.4385C142.135 86.5835 133.924 81.212 131.389 69.92C127.908 54.4167 134.114 40.4001 150.947 38.5274ZM163.052 63.0294C163.792 55.0651 160.121 46.7282 150.83 47.2374C148.317 47.6911 145.046 49.1573 143.752 51.4385C139.609 58.7412 141.094 67.6521 143.868 74.9083C147.102 76.7855 149.924 78.2186 153.672 77.7686C162.319 75.2914 162.294 71.1787 163.052 63.0294Z" fill="#2F6493"/>
<path d="M144.017 58.6597C149.573 58.9534 154.108 58.8654 159.629 58.6724C159.575 61.5282 159.557 64.1054 159.651 66.9572C156.667 66.1464 147.322 66.3992 143.947 66.4314C143.889 63.7737 143.942 61.3192 144.017 58.6597Z" fill="#2F6493"/>
<path d="M178.941 39.4253C191.223 39.7733 204.401 39.5315 216.813 39.6108C216.553 54.9205 216.831 70.3435 216.638 85.679L206.471 85.6333L206.363 58.809C206.351 55.3535 206.318 51.898 206.268 48.4428C200.863 48.594 194.591 48.4083 189.118 48.3833L189.098 85.518L179.077 85.6185C178.64 70.7513 178.929 54.418 178.941 39.4253Z" fill="#2F6493"/>
<path d="M91.4204 38.9163C94.9297 39.1888 98.6457 39.4295 102.163 39.271C102.135 45.6948 102.299 52.5603 102.062 58.9378C106.447 53.301 111.097 47.8568 115.435 42.1795C117.191 39.8825 118.046 39.4215 120.953 39.3848C124.002 39.3463 127.035 39.382 130.072 39.0688C128.944 40.7313 125.564 44.5218 124.063 46.3865C121.368 49.7478 118.63 53.073 115.847 56.3613C114.644 57.809 113.4 59.61 112.116 60.89C114.912 64.03 120.162 71.5455 122.817 75.1613C125.193 78.5055 128.771 81.8493 130.019 85.6093C126.022 85.5608 121.792 85.579 117.817 85.3845C117.231 84.7905 111.641 77.13 110.806 75.9583C108.891 73.2703 103.911 67.653 102.608 65.2028C102.671 71.4158 102.156 78.9965 102.124 85.5698C98.7882 85.6318 95.0962 85.51 91.7342 85.4703C91.5187 81.1625 91.6147 76.2053 91.5437 71.8265C91.3669 60.8573 91.3257 49.8865 91.4204 38.9163Z" fill="#2F6493"/>
<path d="M85.145 45.1511L85.4187 45.1641C85.8552 45.6081 85.6742 50.1441 85.6787 51.1976C80.2615 55.0194 70.4002 59.5236 64.9122 63.5271C69.9792 65.3406 82.0592 71.7009 85.6792 75.4469C85.6087 77.3914 85.6785 78.4871 85.8407 80.3906C83.9815 79.2564 82.087 78.1801 80.1605 77.1639C75.4842 74.4491 70.85 71.6629 66.2592 68.8059C63.3362 66.9606 58.5425 63.6794 55.5532 62.4026C60.3757 60.7179 61.6432 58.8471 65.6297 56.6509C71.8427 53.2279 78.7755 47.8816 85.145 45.1511Z" fill="#2F6493"/>
<path d="M221.923 45.5288C223.238 45.8788 224.403 46.4876 225.511 47.2623C231.946 51.7731 238.961 55.2908 245.516 59.6148C246.973 60.5768 248.516 61.5133 250.123 62.1921C243.221 66.8906 234.401 71.4513 226.993 76.2373C225.908 76.8263 223.181 78.8543 222.318 78.8443C221.786 78.0931 221.863 74.4188 221.828 73.2156C229.038 69.4836 234.566 65.6103 242.266 61.8411C237.966 60.7626 235.728 58.6911 232.003 56.6101C228.861 54.8536 225.093 52.5648 221.848 51.0773C221.908 49.2286 221.933 47.3786 221.923 45.5288Z" fill="#2F6493"/>
<path d="M5.84272 155.265C9.57597 152.715 12.8077 149.67 16.536 147.036C22.9585 142.5 29.1357 136.696 36.05 133.004C36.9312 132.534 39.3995 132.409 40.475 132.398C49.2577 132.308 58.0435 132.276 66.827 132.257L125.085 132.265L198.358 132.312C219.776 132.103 241.191 132.076 262.608 132.228C264.178 132.254 268.596 132.355 269.893 132.887C273.738 134.332 276.548 137.705 279.821 139.873C286.691 144.425 293.166 150.469 299.866 155.052C306.206 156.751 309.198 164.748 303.291 168.704C301.521 169.891 294.633 169.582 292.363 169.627C283.958 169.793 275.513 169.456 267.113 169.488L139.304 169.226C106.751 169.559 74.1965 169.638 41.6427 169.464L21.7605 169.537C17.3972 169.567 6.68148 170.12 3.32948 168.997C0.375729 166.058 -0.379025 164.197 0.161975 159.994C1.40098 158.726 4.33197 155.925 5.84272 155.265Z" fill="#6AAFD9"/>
<path d="M299.866 155.052C306.206 156.751 309.198 164.748 303.291 168.704C301.521 169.89 294.633 169.582 292.363 169.627C283.958 169.793 275.513 169.456 267.113 169.488L139.304 169.226C106.751 169.558 74.1965 169.638 41.6427 169.464L21.7605 169.537C17.3972 169.567 6.68148 170.12 3.32948 168.997C0.375729 166.058 -0.379025 164.196 0.161975 159.994C1.40098 158.725 4.33197 155.925 5.84272 155.265C9.01672 155.581 13.9285 155.466 17.2487 155.473L36.3567 155.506L98.7177 155.631C103.997 155.657 109.276 155.651 114.556 155.613C115.989 155.606 120.737 155.474 121.89 155.598C123.798 156.551 185.891 156.153 187.731 155.481C189.926 155.339 193.836 155.485 196.156 155.494L212.743 155.567C221.243 155.62 297.881 156.124 299.866 155.052Z" fill="#B0D5EC"/>
<path d="M126.089 149.634C128.477 149.683 131.172 149.641 133.562 149.569C149.973 149.08 166.75 150.081 183.12 149.492C184.656 151.478 186.141 153.553 187.731 155.481C185.891 156.153 123.798 156.551 121.89 155.598C123.562 154.206 124.918 151.554 126.089 149.634Z" fill="white"/>
</svg>
